<?xml version="1.0" encoding="UTF-8"?>
<svg xmlns="http://www.w3.org/2000/svg" xmlns:xlink="http://www.w3.org/1999/xlink" width="24pt" height="24pt" viewBox="0 0 24 24" version="1.1">
<g id="surface1">
<path style=" stroke:none;fill-rule:evenodd;fill:rgb(23.137255%,27.45098%,32.156863%);fill-opacity:1;" d="M 21.839844 21.003906 C 21.878906 21.308594 21.664062 21.589844 21.355469 21.632812 C 15.445312 22.417969 9.507812 23.160156 3.605469 23.996094 C 3.296875 24.039062 3.015625 23.824219 2.96875 23.515625 C 2.511719 20.289062 2.25 17.183594 2.179688 14.082031 C 2.105469 10.976562 2.214844 7.894531 2.496094 4.714844 C 2.507812 4.589844 2.5625 4.464844 2.660156 4.371094 L 6.867188 0.164062 C 6.980469 0.0507812 7.117188 -0.0078125 7.300781 0 L 11.207031 0.167969 C 10.980469 0.492188 10.828125 0.867188 10.765625 1.273438 L 7.855469 1.148438 L 8.03125 4.972656 C 8.046875 5.285156 7.757812 5.523438 7.449219 5.511719 L 3.574219 5.347656 C 3.328125 8.316406 3.234375 11.1875 3.300781 14.054688 C 3.367188 16.925781 3.601562 19.8125 4.007812 22.808594 L 20.621094 20.597656 C 19.96875 17.03125 19.585938 14.128906 19.375 11.203125 C 19.164062 8.277344 19.128906 5.316406 19.175781 1.632812 L 15.988281 1.496094 C 15.960938 1.082031 15.839844 0.695312 15.644531 0.359375 L 19.765625 0.535156 C 20.070312 0.546875 20.308594 0.796875 20.304688 1.101562 C 20.25 4.992188 20.277344 8.066406 20.496094 11.125 C 20.746094 14.609375 21.28125 17.648438 21.839844 21.003906 Z M 6.765625 1.855469 L 4.359375 4.257812 L 6.882812 4.367188 Z M 6.765625 1.855469 "/>
<path style=" stroke:none;fill-rule:evenodd;fill:rgb(16.862745%,47.45098%,76.078431%);fill-opacity:1;" d="M 9.457031 17.085938 C 9.457031 16.929688 9.492188 16.066406 9.472656 15.609375 C 9.429688 14.726562 9.414062 14.269531 9.480469 14.238281 C 9.628906 14.167969 9.871094 14.261719 9.925781 14.375 C 10.136719 14.816406 10.199219 17.25 9.941406 17.722656 C 9.757812 18.066406 9.375 18.0625 9.058594 17.5625 C 8.847656 17.234375 8.609375 16.625 8.480469 16.207031 C 8.359375 16.707031 8.308594 17.101562 8.273438 17.804688 C 8.265625 18.003906 8.234375 18.167969 8.136719 18.273438 C 7.894531 18.542969 7.535156 18.421875 7.3125 18.035156 C 6.914062 17.34375 6.714844 16.785156 6.472656 16.019531 C 6.132812 14.925781 6.898438 14.648438 7.269531 15.769531 C 7.414062 16.230469 7.507812 16.636719 7.667969 17.085938 C 7.789062 16.417969 7.886719 16.0625 7.914062 15.164062 C 7.886719 14.464844 8.667969 14.492188 8.796875 14.941406 C 8.945312 15.566406 9.261719 16.492188 9.457031 17.085938 Z M 9.105469 9.238281 C 8.714844 9.625 8.941406 10.425781 9.273438 10.75 C 9.625 11.09375 10 10.644531 10.046875 10.402344 C 10.113281 10.039062 9.9375 9.402344 9.707031 9.101562 C 9.589844 8.949219 9.292969 9.046875 9.105469 9.238281 Z M 10.058594 8.753906 C 10.714844 9.226562 10.898438 10.4375 10.421875 11.128906 C 10.144531 11.519531 9.609375 11.652344 9.183594 11.441406 C 8.636719 11.152344 8.316406 10.507812 8.230469 9.945312 C 8.175781 9.511719 8.304688 9.050781 8.601562 8.691406 C 8.996094 8.242188 9.929688 8.175781 10.058594 8.753906 Z M 12.273438 8.480469 C 12.34375 8.730469 12.394531 9.179688 12.453125 9.464844 C 12.546875 10.105469 13.074219 10.105469 13.089844 9.628906 C 13.097656 9.339844 12.957031 8.753906 12.976562 8.464844 C 13.011719 8.019531 13.574219 7.882812 13.71875 8.601562 C 13.75 8.746094 13.816406 9.09375 13.871094 9.402344 C 13.910156 9.632812 14.234375 9.507812 14.265625 9.316406 C 14.335938 8.882812 14.152344 8.011719 13.898438 7.644531 C 13.515625 7.085938 12.84375 7.375 12.683594 7.96875 C 12.488281 7.527344 12.039062 7.367188 11.65625 7.726562 C 11.558594 7.816406 11.484375 7.933594 11.425781 8.195312 C 11.300781 7.828125 11.210938 7.953125 10.929688 7.921875 C 10.601562 7.894531 10.558594 8.164062 10.621094 8.425781 C 10.804688 9.046875 10.964844 9.597656 11.054688 10.25 C 12.195312 10.941406 11.488281 9.503906 11.574219 8.75 C 11.65625 8.023438 12.230469 8.328125 12.273438 8.480469 Z M 15.152344 8.261719 C 15.382812 8.816406 15.941406 8.441406 16.207031 8.167969 C 16.382812 7.980469 16.910156 7.933594 16.605469 8.472656 C 16.292969 8.949219 15.824219 9.25 15.238281 9.078125 C 14.613281 8.886719 14.363281 8.027344 14.269531 7.445312 C 14.109375 6.148438 15.171875 5.804688 16.066406 6.464844 C 16.429688 6.726562 16.628906 7.058594 16.371094 7.429688 C 16.089844 7.832031 15.652344 8.113281 15.152344 8.261719 Z M 14.960938 7.789062 C 15.222656 7.730469 15.945312 7.3125 15.847656 7.109375 C 15.765625 6.9375 15.332031 6.558594 15.042969 6.757812 C 14.894531 6.863281 14.789062 7.257812 14.960938 7.789062 Z M 16.972656 7.605469 C 17.296875 7.542969 17.734375 7.320312 17.992188 7.175781 C 18.210938 7.058594 18.070312 6.777344 17.832031 6.824219 C 17.488281 6.898438 17.140625 7.046875 16.859375 7.253906 C 16.777344 7.3125 16.871094 7.621094 16.972656 7.605469 Z M 8.148438 11.515625 C 8.023438 10.296875 7.859375 8.921875 7.640625 7.714844 C 7.585938 7.414062 6.769531 7.609375 6.820312 7.875 C 6.921875 8.410156 7.011719 8.949219 7.097656 9.488281 C 6.714844 9.570312 6.09375 9.800781 5.648438 9.917969 C 5.570312 9.160156 5.496094 8.402344 5.453125 7.636719 C 5.429688 7.203125 4.53125 7.289062 4.558594 7.679688 C 4.644531 9.066406 4.84375 10.617188 5.0625 11.992188 C 5.097656 12.195312 5.390625 13.886719 5.746094 13.871094 C 6.097656 13.800781 5.867188 12.109375 5.847656 11.902344 C 5.8125 11.515625 5.773438 11.128906 5.734375 10.742188 C 6.222656 10.597656 6.796875 10.367188 7.203125 10.148438 C 7.28125 10.636719 7.363281 11.128906 7.453125 11.613281 C 7.507812 11.890625 7.589844 12.835938 7.984375 12.773438 C 8.363281 12.691406 8.175781 11.8125 8.148438 11.515625 Z M 14.621094 16.878906 C 12.496094 17.675781 10.0625 18.582031 8.117188 19.738281 C 7.890625 19.882812 7.613281 20.160156 7.769531 20.449219 C 7.9375 20.695312 8.347656 20.574219 8.550781 20.453125 C 10.550781 19.246094 12.746094 18.449219 14.882812 17.527344 C 15.046875 17.457031 17.628906 16.394531 17.445312 16.035156 C 17.273438 15.773438 14.824219 16.800781 14.621094 16.878906 Z M 17.851562 11.671875 C 17.847656 11.925781 17.921875 12.683594 17.550781 12.691406 C 17.207031 12.675781 17.1875 11.992188 17.148438 11.722656 C 17.070312 11.152344 16.917969 9.492188 17.0625 8.976562 C 17.175781 8.5625 17.890625 9.070312 17.875 9.160156 C 17.84375 9.304688 17.832031 9.464844 17.824219 9.613281 C 17.789062 10.304688 17.84375 10.988281 17.851562 11.671875 Z M 17.925781 13.53125 C 17.722656 13.839844 17.378906 13.636719 17.292969 13.414062 C 17.175781 13.113281 17.332031 12.847656 17.652344 12.867188 C 18.082031 12.894531 18.132812 13.214844 17.925781 13.53125 Z M 15.382812 13.832031 C 15.410156 14.132812 15.589844 14.882812 15.21875 14.96875 C 14.835938 15.039062 14.746094 14.222656 14.6875 13.941406 C 14.503906 13.054688 14.308594 11.601562 14.253906 10.707031 C 14.277344 10.472656 14.96875 10.542969 14.992188 10.636719 C 15 10.992188 15.078125 11.6875 15.125 12.09375 C 15.386719 11.777344 15.796875 11.453125 16.058594 11.140625 C 16.152344 11.050781 16.757812 11.351562 16.585938 11.554688 C 16.292969 11.894531 15.695312 12.289062 15.402344 12.636719 C 15.789062 12.832031 17.300781 13.394531 17.027344 13.738281 C 16.792969 13.96875 15.691406 13.445312 15.308594 13.261719 C 15.335938 13.460938 15.363281 13.648438 15.382812 13.832031 Z M 13.210938 13.097656 C 13.359375 12.757812 13.738281 12.554688 14.078125 12.730469 C 14.417969 12.960938 14.246094 13.324219 13.96875 13.25 C 13.683594 13.171875 13.503906 13.558594 13.523438 13.769531 C 13.527344 13.769531 13.671875 14.621094 13.683594 14.699219 C 13.832031 15.808594 12.996094 15.496094 12.941406 15.035156 C 12.867188 14.421875 12.757812 13.914062 12.511719 13.347656 C 12.382812 13.054688 12.984375 12.574219 13.210938 13.097656 Z M 11.113281 14.625 C 11.332031 14.28125 11.816406 14.371094 11.96875 14.675781 C 12.085938 14.910156 11.90625 15.410156 11.703125 15.640625 C 11.539062 15.824219 11.296875 15.824219 11.132812 15.6875 C 10.917969 15.507812 10.949219 14.886719 11.113281 14.625 Z M 11.683594 13.9375 C 11.589844 13.84375 11.511719 13.800781 11.40625 13.777344 C 10.878906 13.679688 10.515625 14.308594 10.394531 14.730469 C 10.171875 15.519531 10.453125 16.316406 11.324219 16.386719 C 12.257812 16.457031 12.914062 15.203125 12.5 14.425781 C 12.324219 14.097656 12.042969 13.980469 11.683594 13.9375 Z M 11.683594 13.9375 "/>
<path style=" stroke:none;fill-rule:evenodd;fill:rgb(16.862745%,47.45098%,76.078431%);fill-opacity:1;" d="M 13.363281 0.167969 C 14.195312 0.167969 14.867188 0.839844 14.867188 1.667969 C 14.867188 2.496094 14.195312 3.167969 13.363281 3.167969 C 13.09375 3.167969 12.835938 3.097656 12.617188 2.96875 L 11.683594 3.925781 C 11.539062 4.074219 11.300781 4.078125 11.152344 3.933594 C 11.003906 3.789062 11 3.554688 11.144531 3.40625 L 12.082031 2.449219 C 11.941406 2.21875 11.863281 1.953125 11.863281 1.667969 C 11.863281 0.839844 12.535156 0.167969 13.363281 0.167969 Z M 13.363281 0.167969 "/>
</g>
</svg>
