<?xml version="1.0" encoding="UTF-8"?>
<svg xmlns="http://www.w3.org/2000/svg" xmlns:xlink="http://www.w3.org/1999/xlink" width="24pt" height="24pt" viewBox="0 0 24 24" version="1.1">
<g id="surface1">
<path style=" stroke:none;fill-rule:nonzero;fill:rgb(16.862745%,47.058824%,76.078431%);fill-opacity:1;" d="M 5.089844 13.917969 L 4.824219 16.082031 L 6.828125 14.195312 C 6.964844 14.070312 7.140625 14.015625 7.3125 14.035156 L 7.3125 14.03125 C 7.472656 14.050781 7.628906 14.0625 7.78125 14.074219 L 7.835938 14.074219 L 7.835938 15.300781 L 7.714844 15.292969 C 7.628906 15.289062 7.546875 15.285156 7.464844 15.277344 L 4.457031 18.105469 C 4.324219 18.242188 4.136719 18.316406 3.933594 18.292969 C 3.597656 18.25 3.359375 17.945312 3.402344 17.609375 L 3.820312 14.1875 C 2.84375 13.636719 2.023438 12.910156 1.433594 12.058594 C 0.773438 11.113281 0.398438 10.019531 0.398438 8.851562 C 0.398438 7.042969 1.296875 5.414062 2.75 4.242188 C 4.164062 3.097656 6.109375 2.390625 8.25 2.390625 C 10.390625 2.390625 12.335938 3.097656 13.75 4.242188 C 14.660156 4.976562 15.351562 5.886719 15.742188 6.910156 L 14.402344 6.910156 C 14.074219 6.265625 13.589844 5.683594 12.984375 5.195312 C 11.78125 4.222656 10.105469 3.617188 8.25 3.617188 C 6.394531 3.617188 4.722656 4.222656 3.515625 5.195312 C 2.347656 6.136719 1.625 7.429688 1.625 8.851562 C 1.625 9.761719 1.921875 10.617188 2.4375 11.359375 C 2.988281 12.152344 3.789062 12.820312 4.75 13.292969 C 4.988281 13.410156 5.117188 13.664062 5.085938 13.917969 Z M 5.089844 13.917969 "/>
<path style=" stroke:none;fill-rule:evenodd;fill:rgb(23.137255%,27.058824%,32.156863%);fill-opacity:1;" d="M 19 18.199219 L 19.328125 20.921875 C 19.367188 21.257812 19.125 21.5625 18.789062 21.601562 C 18.59375 21.625 18.40625 21.550781 18.277344 21.417969 L 14.851562 18.199219 L 10.859375 18.199219 C 9.503906 18.199219 8.390625 17.089844 8.390625 15.734375 L 8.390625 9.9375 C 8.390625 8.578125 9.503906 7.46875 10.859375 7.46875 L 21.132812 7.46875 C 22.492188 7.46875 23.601562 8.578125 23.601562 9.9375 L 23.601562 15.734375 C 23.601562 17.089844 22.488281 18.199219 21.132812 18.199219 Z M 12.757812 12.085938 C 13.308594 12.085938 13.757812 12.535156 13.757812 13.089844 C 13.757812 13.644531 13.308594 14.09375 12.757812 14.09375 C 12.203125 14.09375 11.753906 13.644531 11.753906 13.089844 C 11.753906 12.535156 12.203125 12.085938 12.757812 12.085938 Z M 15.996094 12.085938 C 16.550781 12.085938 17 12.535156 17 13.089844 C 17 13.644531 16.550781 14.09375 15.996094 14.09375 C 15.441406 14.09375 14.992188 13.644531 14.992188 13.089844 C 14.992188 12.535156 15.441406 12.085938 15.996094 12.085938 Z M 19.234375 12.085938 C 19.789062 12.085938 20.238281 12.535156 20.238281 13.089844 C 20.238281 13.644531 19.789062 14.09375 19.234375 14.09375 C 18.683594 14.09375 18.234375 13.644531 18.234375 13.089844 C 18.234375 12.535156 18.683594 12.085938 19.234375 12.085938 Z M 19.234375 12.085938 "/>
</g>
</svg>
