<?xml version="1.0" encoding="UTF-8"?>
<svg xmlns="http://www.w3.org/2000/svg" xmlns:xlink="http://www.w3.org/1999/xlink" width="24pt" height="24pt" viewBox="0 0 24 24" version="1.1">
<g id="surface1">
<path style=" stroke:none;fill-rule:nonzero;fill:rgb(23.137255%,27.45098%,32.156863%);fill-opacity:1;" d="M 3.003906 9.449219 C 3.3125 9.980469 3.621094 10.21875 4.066406 10.6875 L 4.125 10.6875 L 4.125 6.40625 C 4.125 6.046875 4.421875 5.71875 4.78125 5.71875 L 10.566406 5.71875 C 10.398438 5.34375 10.171875 4.96875 9.882812 4.59375 L 4.78125 4.59375 C 3.808594 4.59375 3 5.421875 3 6.394531 Z M 3.003906 9.449219 "/>
<path style=" stroke:none;fill-rule:nonzero;fill:rgb(23.137255%,27.45098%,32.156863%);fill-opacity:1;" d="M 13.75 4.597656 C 14 5.253906 14.160156 5.90625 14.222656 6.65625 L 21.375 6.65625 L 21.375 8.15625 L 22.222656 8.15625 C 22.878906 8.15625 23.53125 8.386719 24 8.816406 L 24 4.3125 C 24 3.335938 23.199219 2.53125 22.222656 2.53125 L 17.058594 2.53125 C 16.457031 2.53125 15.964844 2.925781 15.800781 3.5 L 15.484375 4.597656 Z M 13.75 4.597656 "/>
<path style=" stroke:none;fill-rule:nonzero;fill:rgb(23.137255%,27.45098%,32.156863%);fill-opacity:1;" d="M 22.222656 10.21875 C 22.585938 10.21875 22.875 10.511719 22.875 10.875 L 22.875 21.320312 C 22.875 21.804688 22.484375 22.21875 22 22.21875 L 5.003906 22.21875 C 4.519531 22.21875 4.128906 21.851562 4.128906 21.367188 L 4.125 14.472656 C 3.738281 14.335938 3.367188 14.167969 3.003906 13.972656 L 3.003906 21.367188 C 3.003906 22.46875 3.90625 23.34375 5.003906 23.34375 L 22 23.34375 C 23.105469 23.34375 24 22.417969 24 21.320312 L 24 10.875 C 24 9.894531 23.199219 9.09375 22.222656 9.09375 L 14.039062 9.097656 C 13.945312 9.480469 13.824219 9.855469 13.671875 10.21875 Z M 22.222656 10.21875 "/>
<path style=" stroke:none;fill-rule:nonzero;fill:rgb(16.862745%,47.45098%,76.078431%);fill-opacity:1;" d="M 0 7.3125 C 0 10.988281 2.980469 13.964844 6.65625 13.964844 C 8.0625 13.964844 9.472656 13.523438 10.652344 12.636719 L 11.339844 13.324219 L 12.664062 11.996094 L 11.976562 11.308594 C 12.867188 10.128906 13.3125 8.71875 13.3125 7.3125 C 13.3125 3.636719 10.332031 0.65625 6.65625 0.65625 C 2.980469 0.65625 0 3.636719 0 7.3125 Z M 6.65625 2.15625 C 9.503906 2.15625 11.8125 4.464844 11.8125 7.3125 C 11.8125 10.160156 9.503906 12.46875 6.65625 12.46875 C 3.808594 12.46875 1.5 10.160156 1.5 7.3125 C 1.5 4.464844 3.808594 2.15625 6.65625 2.15625 Z M 6.65625 2.15625 "/>
<path style=" stroke:none;fill-rule:nonzero;fill:rgb(16.862745%,47.45098%,76.078431%);fill-opacity:1;" d="M 12.082031 14.066406 L 15.085938 17.070312 C 15.453125 17.433594 16.046875 17.433594 16.414062 17.070312 C 16.777344 16.703125 16.777344 16.109375 16.414062 15.742188 L 13.410156 12.742188 Z M 12.082031 14.066406 "/>
<path style=" stroke:none;fill-rule:nonzero;fill:rgb(16.862745%,47.45098%,76.078431%);fill-opacity:1;" d="M 5.0625 10.21875 L 9.710938 10.21875 C 9.878906 10.03125 10.03125 9.84375 10.164062 9.65625 L 5.0625 9.65625 Z M 5.0625 10.21875 "/>
<path style=" stroke:none;fill-rule:nonzero;fill:rgb(16.862745%,47.45098%,76.078431%);fill-opacity:1;" d="M 5.0625 7.40625 L 10.875 7.40625 C 10.875 7.40625 10.875 7.34375 10.875 7.308594 C 10.875 7.152344 10.867188 7.03125 10.847656 6.84375 L 5.0625 6.84375 Z M 5.0625 7.40625 "/>
<path style=" stroke:none;fill-rule:nonzero;fill:rgb(16.862745%,47.45098%,76.078431%);fill-opacity:1;" d="M 5.0625 8.8125 L 10.597656 8.8125 C 10.667969 8.625 10.726562 8.4375 10.769531 8.25 L 5.0625 8.25 Z M 5.0625 8.8125 "/>
</g>
</svg>
