<?xml version="1.0" encoding="UTF-8"?>
<svg xmlns="http://www.w3.org/2000/svg" xmlns:xlink="http://www.w3.org/1999/xlink" width="24pt" height="24pt" viewBox="0 0 24 24" version="1.1">
<g id="surface1">
<path style=" stroke:none;fill-rule:evenodd;fill:rgb(23.137255%,27.45098%,32.156863%);fill-opacity:1;" d="M 8.125 12.109375 C 7.675781 13.011719 6.8125 14.128906 5.722656 14.128906 C 4.636719 14.128906 3.769531 13.011719 3.320312 12.113281 C 2.753906 11.597656 2.542969 11.164062 2.464844 10.621094 C 1.703125 11.265625 1.75 13.039062 1.773438 13.785156 C -0.789062 14.082031 0.015625 10.335938 2.421875 9.953125 C 2.417969 9.796875 2.417969 9.628906 2.417969 9.449219 C 2.417969 7.660156 3.9375 6.210938 5.722656 6.210938 C 7.507812 6.210938 9.027344 7.660156 9.027344 9.449219 C 9.027344 9.621094 9.023438 9.789062 9.015625 9.953125 C 11.425781 10.324219 12.238281 14.082031 9.671875 13.785156 C 9.695312 13.027344 9.746094 11.210938 8.945312 10.589844 C 8.839844 11.152344 8.613281 11.660156 8.125 12.109375 Z M 8.097656 10.144531 C 7.3125 10.34375 6.566406 10.359375 5.628906 10.183594 C 5.714844 9.660156 5.683594 9.398438 5.605469 8.878906 C 5.4375 9.53125 5.238281 10 4.855469 10.324219 C 4.699219 10.371094 4.535156 10.367188 4.335938 10.335938 C 4.445312 9.871094 4.453125 9.640625 4.367188 9.210938 C 4.195312 9.707031 4.046875 9.96875 3.703125 10.324219 C 3.554688 10.363281 3.523438 10.398438 3.390625 10.421875 C 3.519531 11.113281 3.808594 11.828125 4.1875 12.40625 C 4.648438 13.109375 5.136719 13.503906 5.722656 13.503906 C 6.3125 13.503906 6.796875 13.109375 7.257812 12.40625 C 7.6875 11.746094 8 10.917969 8.097656 10.144531 Z M 8.097656 10.144531 "/>
<path style=" stroke:none;fill-rule:evenodd;fill:rgb(23.137255%,27.45098%,32.156863%);fill-opacity:1;" d="M 10.515625 18.714844 C 10.761719 20.308594 10.914062 22.046875 10.941406 23.167969 C 10.945312 23.265625 10.910156 23.351562 10.839844 23.421875 C 10.773438 23.496094 10.6875 23.53125 10.589844 23.53125 L 0.9375 23.53125 C 0.839844 23.53125 0.753906 23.496094 0.683594 23.421875 C 0.617188 23.351562 0.605469 23.265625 0.605469 23.167969 C 0.632812 22.046875 0.765625 20.308594 1.011719 18.714844 C 1.492188 18.871094 1.988281 19.003906 2.503906 19.136719 C 3.503906 19.398438 4.570312 19.675781 5.714844 19.769531 L 5.8125 19.769531 C 6.957031 19.675781 8.023438 19.398438 9.023438 19.136719 C 9.539062 19.003906 10.035156 18.871094 10.515625 18.714844 Z M 10.515625 18.714844 "/>
<path style=" stroke:none;fill-rule:evenodd;fill:rgb(16.862745%,47.45098%,76.078431%);fill-opacity:1;" d="M 2.972656 14.828125 C 3.25 14.707031 3.539062 14.605469 3.828125 14.519531 C 3.648438 15.484375 3.589844 16.449219 3.589844 17.410156 C 4.214844 16.960938 5.136719 16.515625 5.761719 16.066406 C 6.386719 16.515625 7.3125 16.960938 7.9375 17.410156 C 7.9375 16.449219 7.875 15.484375 7.699219 14.519531 C 7.988281 14.605469 8.273438 14.707031 8.550781 14.828125 C 9.207031 15.113281 9.742188 15.375 9.953125 16.058594 C 10.113281 16.574219 10.257812 17.222656 10.382812 17.925781 C 10.390625 17.960938 10.398438 17.996094 10.402344 18.03125 C 9.90625 18.195312 9.390625 18.347656 8.851562 18.488281 C 7.894531 18.738281 6.867188 18.949219 5.761719 19.109375 C 4.65625 18.949219 3.632812 18.738281 2.671875 18.488281 C 2.136719 18.351562 1.621094 18.195312 1.121094 18.03125 C 1.128906 17.992188 1.136719 17.949219 1.144531 17.90625 C 1.269531 17.210938 1.414062 16.570312 1.570312 16.058594 C 1.785156 15.375 2.320312 15.113281 2.972656 14.828125 Z M 2.972656 14.828125 "/>
<path style=" stroke:none;fill-rule:evenodd;fill:rgb(23.137255%,27.45098%,32.156863%);fill-opacity:1;" d="M 19.089844 18.28125 C 19.089844 18 18.863281 17.769531 18.582031 17.769531 C 18.300781 17.769531 18.074219 18 18.074219 18.28125 C 18.074219 18.5625 18.300781 18.789062 18.582031 18.789062 C 18.863281 18.789062 19.089844 18.5625 19.089844 18.28125 Z M 19.089844 18.28125 "/>
<path style=" stroke:none;fill-rule:evenodd;fill:rgb(16.862745%,47.45098%,76.078431%);fill-opacity:1;" d="M 18.996094 14.152344 C 18.511719 15.152344 18.296875 15.101562 17.332031 15.828125 C 16.363281 15.101562 16.152344 15.152344 15.664062 14.152344 C 15.476562 14.207031 14.925781 14.28125 14.59375 14.375 C 15.359375 15.710938 15.578125 15.871094 16.910156 16.730469 C 17.03125 16.808594 17.160156 16.890625 17.332031 17.003906 C 17.5 16.890625 17.628906 16.808594 17.75 16.730469 C 19.078125 15.875 19.316406 15.683594 20.070312 14.375 C 19.734375 14.28125 19.1875 14.207031 18.996094 14.152344 Z M 18.996094 14.152344 "/>
<path style=" stroke:none;fill-rule:evenodd;fill:rgb(23.137255%,27.45098%,32.156863%);fill-opacity:1;" d="M 14.164062 9.773438 C 13.671875 8.363281 14.058594 7.519531 14.660156 6.816406 C 15.445312 5.902344 16.539062 5.476562 17.59375 5.546875 C 17.539062 5.375 17.523438 5.191406 17.554688 4.9375 C 17.5625 4.859375 18.28125 5.628906 18.324219 5.519531 C 18.363281 5.417969 18.738281 4.636719 18.773438 4.949219 C 18.832031 5.46875 19.019531 5.828125 19.109375 6.015625 C 19.328125 5.851562 20.230469 5.488281 20.046875 5.738281 C 19.785156 6.097656 19.714844 6.332031 19.6875 6.480469 C 19.84375 6.632812 19.992188 6.804688 20.125 6.996094 C 20.789062 7.949219 20.800781 8.832031 20.441406 9.761719 C 20.707031 9.878906 20.757812 10.375 20.683594 10.59375 C 20.621094 10.765625 20.304688 11.148438 20.113281 11.195312 C 19.675781 12.359375 18.71875 14.128906 17.308594 14.128906 C 15.8125 14.128906 15.003906 12.40625 14.582031 11.199219 C 14.335938 11.210938 14.007812 10.792969 13.9375 10.59375 C 13.863281 10.378906 13.917969 9.898438 14.164062 9.773438 Z M 19.796875 9.988281 C 19.3125 9.578125 19 9.109375 18.839844 8.515625 C 17.890625 9.546875 16.199219 9.792969 14.855469 9.703125 C 15.164062 10.984375 15.835938 13.449219 17.308594 13.484375 C 18.609375 13.441406 19.558594 11.113281 19.796875 9.988281 Z M 19.796875 9.988281 "/>
<path style=" stroke:none;fill-rule:evenodd;fill:rgb(23.137255%,27.45098%,32.156863%);fill-opacity:1;" d="M 14.050781 14.535156 C 13.144531 14.816406 12.160156 15.207031 12.015625 15.679688 C 11.46875 17.4375 11.21875 21.171875 11.175781 22.996094 C 11.167969 23.289062 11.402344 23.53125 11.699219 23.53125 C 15.453125 23.53125 19.207031 23.53125 22.964844 23.53125 C 23.257812 23.53125 23.492188 23.289062 23.484375 22.996094 C 23.441406 21.171875 23.191406 17.4375 22.648438 15.679688 C 22.5 15.207031 21.515625 14.816406 20.609375 14.535156 L 20.46875 14.785156 C 19.914062 15.988281 19.199219 16.449219 18.050781 17.191406 C 17.90625 17.285156 17.71875 17.382812 17.625 17.46875 L 17.625 22.964844 L 17.0625 22.964844 L 17.0625 17.480469 C 16.96875 17.390625 16.765625 17.289062 16.613281 17.191406 C 15.464844 16.449219 14.75 15.988281 14.195312 14.785156 Z M 14.050781 14.535156 "/>
<path style=" stroke:none;fill-rule:evenodd;fill:rgb(23.137255%,27.45098%,32.156863%);fill-opacity:1;" d="M 0 22.964844 C 8.0625 22.964844 16.03125 22.964844 24 22.964844 L 24 24 L 0 24 Z M 0 22.964844 "/>
</g>
</svg>
