<?xml version="1.0" encoding="UTF-8"?>
<svg xmlns="http://www.w3.org/2000/svg" xmlns:xlink="http://www.w3.org/1999/xlink" width="24pt" height="24pt" viewBox="0 0 24 24" version="1.1">
<g id="surface1">
<path style=" stroke:none;fill-rule:evenodd;fill:rgb(23.137255%,27.058824%,32.156863%);fill-opacity:1;" d="M 1.332031 16.78125 C 1.332031 16.457031 1.683594 16.292969 2.023438 16.292969 L 3.621094 16.292969 C 3.773438 16.292969 3.914062 16.183594 3.933594 16.03125 L 4.117188 14.671875 C 4.164062 14.320312 4.496094 14.089844 4.851562 14.089844 L 9.703125 14.089844 C 10.054688 14.089844 10.390625 14.320312 10.4375 14.671875 L 10.621094 16.03125 C 10.640625 16.179688 10.78125 16.292969 10.933594 16.292969 L 21.988281 16.292969 C 22.328125 16.296875 22.667969 16.488281 22.660156 16.785156 L 22.660156 22.460938 C 22.660156 22.644531 22.5625 22.84375 22.375 22.84375 L 1.621094 22.84375 C 1.433594 22.84375 1.328125 22.710938 1.328125 22.523438 Z M 21.992188 11.40625 C 22.980469 11.40625 23.8125 12.207031 23.8125 13.226562 L 23.8125 22.503906 C 23.8125 23.316406 23.152344 24 22.339844 24 L 1.660156 24 C 0.851562 24 0.1875 23.363281 0.1875 22.554688 L 0.1875 13.222656 C 0.199219 12.21875 1.003906 11.402344 2.007812 11.40625 L 2.042969 11.40625 L 13.066406 11.417969 C 13.21875 11.417969 13.359375 11.320312 13.378906 11.167969 L 13.5625 9.792969 C 13.609375 9.441406 13.945312 9.214844 14.296875 9.214844 L 19.148438 9.214844 C 19.5 9.214844 19.835938 9.441406 19.882812 9.792969 L 20.066406 11.167969 C 20.085938 11.320312 20.230469 11.417969 20.378906 11.417969 C 20.917969 11.417969 21.464844 11.40625 21.992188 11.40625 Z M 7.699219 19.835938 L 6.367188 19.835938 L 7.039062 17.828125 L 7.054688 17.828125 Z M 4.894531 20.835938 C 4.851562 20.949219 4.78125 21.148438 4.78125 21.273438 C 4.78125 21.582031 4.996094 21.773438 5.308594 21.773438 C 5.582031 21.773438 5.742188 21.683594 5.816406 21.460938 L 6.117188 20.628906 L 7.949219 20.628906 L 8.242188 21.460938 C 8.324219 21.683594 8.507812 21.773438 8.757812 21.773438 C 9.046875 21.773438 9.292969 21.554688 9.292969 21.273438 C 9.292969 21.148438 9.222656 20.949219 9.179688 20.835938 L 7.804688 17.007812 C 7.679688 16.65625 7.449219 16.59375 7.191406 16.59375 L 6.921875 16.59375 C 6.644531 16.59375 6.578125 16.683594 6.480469 16.9375 Z M 4.894531 20.835938 "/>
<path style=" stroke:none;fill-rule:evenodd;fill:rgb(16.862745%,47.058824%,76.078431%);fill-opacity:1;" d="M 1.433594 2.101562 L 13.136719 2.109375 C 13.261719 2.085938 13.363281 1.996094 13.378906 1.867188 L 13.5625 0.570312 C 13.613281 0.21875 13.945312 0 14.296875 0 L 19.148438 0 C 19.503906 0 19.832031 0.21875 19.882812 0.570312 L 20.066406 1.867188 C 20.082031 1.996094 20.1875 2.085938 20.308594 2.109375 L 22.566406 2.109375 C 22.910156 2.109375 23.222656 2.25 23.445312 2.476562 C 23.671875 2.699219 23.8125 3.011719 23.8125 3.355469 L 23.8125 11.386719 C 23.496094 11.078125 23.101562 10.847656 22.660156 10.726562 L 22.660156 7.53125 C 22.566406 7.222656 22.277344 6.984375 21.941406 6.984375 L 10.933594 6.988281 C 10.78125 6.988281 10.640625 6.886719 10.621094 6.738281 L 10.4375 5.46875 C 10.386719 5.117188 10.054688 4.886719 9.703125 4.886719 L 4.851562 4.886719 C 4.496094 4.886719 4.167969 5.117188 4.117188 5.46875 L 3.9375 6.738281 C 3.914062 6.890625 3.773438 6.988281 3.621094 6.988281 L 2.042969 6.988281 C 1.703125 6.988281 1.4375 7.214844 1.339844 7.523438 L 1.339844 10.726562 C 0.898438 10.84375 0.503906 11.078125 0.1875 11.386719 L 0.1875 3.355469 C 0.1875 3.011719 0.328125 2.699219 0.554688 2.476562 C 0.777344 2.25 1.089844 2.101562 1.433594 2.101562 Z M 1.433594 2.101562 "/>
</g>
</svg>
