<?xml version="1.0" encoding="UTF-8"?>
<svg xmlns="http://www.w3.org/2000/svg" xmlns:xlink="http://www.w3.org/1999/xlink" width="24pt" height="24pt" viewBox="0 0 24 24" version="1.1">
<g id="surface1">
<path style=" stroke:none;fill-rule:evenodd;fill:rgb(16.862745%,47.45098%,76.078431%);fill-opacity:1;" d="M 2.4375 8.945312 C 2.859375 9.484375 3.917969 10.914062 5.308594 11.878906 C 7.382812 8.355469 9.007812 7.101562 12.414062 5.660156 C 13.144531 5.351562 13.824219 6.089844 13.199219 6.574219 C 10.023438 9.03125 8.714844 10.402344 7.335938 13.519531 C 6.601562 15.179688 5.386719 15.480469 4.121094 14.257812 C 3.035156 13.207031 2.304688 12.664062 0.792969 10.386719 C 0.160156 9.433594 1.917969 8.28125 2.4375 8.945312 Z M 20.972656 21.835938 L 19.636719 23.792969 C 19.605469 23.839844 19.5625 23.882812 19.511719 23.917969 C 19.296875 24.066406 19.003906 24.007812 18.855469 23.792969 L 17.519531 21.835938 L 18.40625 21.324219 L 20.082031 21.324219 Z M 20.972656 21.835938 "/>
<path style=" stroke:none;fill-rule:evenodd;fill:rgb(23.137255%,27.45098%,32.156863%);fill-opacity:1;" d="M 17.957031 6.132812 L 20.578125 6.132812 L 20.578125 3.320312 C 20.578125 2.476562 17.957031 2.476562 17.957031 3.320312 C 17.957031 4.257812 17.957031 5.195312 17.957031 6.132812 Z M 17.957031 7.542969 L 17.957031 17.460938 C 18.800781 16.929688 19.734375 16.976562 20.578125 17.492188 L 20.578125 7.542969 Z M 22.378906 3.464844 C 22.378906 2.453125 21.136719 2.523438 21.136719 3.363281 L 21.136719 6.132812 L 22.398438 6.132812 Z M 16.402344 2.132812 C 17.582031 0.570312 20.808594 0.550781 22.023438 2.097656 C 21.542969 1.953125 21.085938 2.148438 20.792969 2.554688 C 20.050781 1.882812 18.488281 1.886719 17.746094 2.554688 C 17.425781 2.113281 16.90625 1.929688 16.402344 2.132812 Z M 17.394531 6.132812 C 17.394531 6.132812 17.394531 4.257812 17.394531 3.363281 C 17.394531 2.4375 16.085938 2.472656 16.085938 3.4375 L 16.085938 6.132812 Z M 16.085938 17.339844 C 16.085938 17.210938 16.929688 17.277344 17.394531 17.476562 L 17.394531 7.542969 L 16.085938 7.542969 Z M 22.390625 18.015625 C 21.789062 17.574219 21.660156 17.96875 21.054688 18.386719 C 20.855469 18.523438 20.742188 18.523438 20.519531 18.328125 C 19.640625 17.566406 18.675781 17.570312 17.878906 18.371094 C 17.730469 18.527344 17.5 18.511719 17.371094 18.332031 C 17.027344 17.886719 16.554688 17.875 16.078125 18.039062 L 17.90625 20.734375 L 17.089844 21.207031 L 15.230469 18.441406 C 15.167969 18.359375 15.148438 18.261719 15.148438 18.148438 L 15.148438 3.113281 C 15.148438 2.222656 15.617188 1.429688 16.394531 0.863281 C 17.984375 -0.289062 20.5 -0.289062 22.085938 0.863281 C 22.867188 1.429688 23.34375 2.222656 23.34375 3.113281 L 23.339844 18.121094 C 23.34375 18.222656 23.316406 18.328125 23.257812 18.417969 L 21.367188 21.207031 L 20.550781 20.734375 Z M 21.136719 7.542969 L 21.136719 17.492188 C 21.605469 17.195312 21.914062 16.949219 22.375 17.164062 L 22.398438 7.542969 Z M 21.136719 7.542969 "/>
<path style=" stroke:none;fill-rule:evenodd;fill:rgb(23.137255%,27.45098%,32.156863%);fill-opacity:1;" d="M 12.15625 8.109375 L 12.15625 16.464844 C 12.15625 16.839844 11.890625 17.105469 11.515625 17.105469 L 2.035156 17.105469 C 1.65625 17.105469 1.394531 16.84375 1.394531 16.464844 L 1.394531 12.222656 C 1.582031 12.574219 1.863281 12.914062 2.144531 13.246094 L 2.144531 16.355469 L 11.3125 16.355469 L 11.3125 8.859375 C 11.59375 8.613281 11.875 8.363281 12.15625 8.109375 Z M 2.035156 6.226562 C 1.660156 6.226562 1.394531 6.582031 1.394531 6.957031 L 1.394531 8.226562 C 1.675781 8.113281 1.957031 8.070312 2.144531 8.121094 L 2.144531 7.070312 L 8.355469 7.070312 C 8.761719 6.789062 9.195312 6.507812 9.667969 6.226562 Z M 2.035156 6.226562 "/>
</g>
</svg>
