<?xml version="1.0" encoding="UTF-8"?>
<svg xmlns="http://www.w3.org/2000/svg" xmlns:xlink="http://www.w3.org/1999/xlink" width="24pt" height="24pt" viewBox="0 0 24 24" version="1.1">
<g id="surface1">
<path style=" stroke:none;fill-rule:nonzero;fill:rgb(23.137255%,27.45098%,32.156863%);fill-opacity:1;" d="M 23.261719 21.402344 C 23.773438 21.917969 23.773438 22.746094 23.261719 23.261719 C 22.746094 23.773438 21.917969 23.773438 21.402344 23.261719 L 17.421875 19.277344 L 19.277344 17.421875 Z M 10.199219 0.355469 C 15.636719 0.355469 20.042969 4.761719 20.042969 10.199219 C 20.042969 12.445312 19.289062 14.511719 18.027344 16.167969 L 18.746094 16.890625 L 16.890625 18.746094 L 16.167969 18.027344 C 14.511719 19.289062 12.445312 20.042969 10.199219 20.042969 C 4.761719 20.042969 0.355469 15.636719 0.355469 10.199219 C 0.355469 4.761719 4.761719 0.355469 10.199219 0.355469 Z M 16.097656 4.300781 C 14.589844 2.789062 12.503906 1.855469 10.199219 1.855469 C 7.894531 1.855469 5.808594 2.789062 4.300781 4.300781 C 2.789062 5.808594 1.855469 7.894531 1.855469 10.199219 C 1.855469 12.503906 2.789062 14.589844 4.300781 16.097656 C 5.808594 17.609375 7.894531 18.542969 10.199219 18.542969 C 12.503906 18.542969 14.589844 17.609375 16.097656 16.097656 C 17.609375 14.589844 18.542969 12.503906 18.542969 10.199219 C 18.542969 7.894531 17.609375 5.808594 16.097656 4.300781 Z M 16.097656 4.300781 "/>
<path style=" stroke:none;fill-rule:evenodd;fill:rgb(16.862745%,47.45098%,76.078431%);fill-opacity:1;" d="M 7.28125 8.371094 L 9.730469 8.371094 L 9.730469 17.589844 C 8.878906 17.539062 8.050781 17.339844 7.28125 17.007812 Z M 3.886719 14.078125 C 4.1875 14.566406 4.546875 15.023438 4.960938 15.4375 C 5.378906 15.855469 5.84375 16.21875 6.335938 16.519531 L 6.335938 10.019531 L 3.886719 10.019531 Z M 10.671875 17.589844 C 11.523438 17.535156 12.351562 17.339844 13.121094 17.007812 L 13.121094 11.613281 L 10.671875 11.613281 Z M 14.0625 16.519531 C 14.554688 16.21875 15.019531 15.855469 15.4375 15.4375 C 15.851562 15.023438 16.210938 14.566406 16.511719 14.078125 L 16.511719 7.289062 L 14.0625 7.289062 Z M 14.0625 16.519531 "/>
</g>
</svg>
