<?xml version="1.0" encoding="UTF-8"?>
<svg xmlns="http://www.w3.org/2000/svg" xmlns:xlink="http://www.w3.org/1999/xlink" width="24pt" height="24pt" viewBox="0 0 24 24" version="1.1">
<g id="surface1">
<path style=" stroke:none;fill-rule:evenodd;fill:rgb(16.862745%,47.45098%,76.078431%);fill-opacity:1;" d="M 15.4375 3.496094 L 13.570312 4.488281 L 12.820312 5.539062 L 11.675781 5.328125 L 10.039062 6.273438 L 8.175781 5.625 L 7.125 6.261719 L 5.921875 7.945312 L 6.289062 8.433594 L 6.855469 8.410156 L 6.945312 9.027344 L 6.277344 9.121094 L 5.890625 9.664062 L 4.980469 8.421875 L 4.570312 9.5625 L 5.578125 9.765625 L 5.503906 10.574219 L 4.832031 10.839844 L 4.914062 11.601562 L 5.300781 12.03125 L 4.359375 13.648438 L 4.542969 14.9375 L 5.554688 15.734375 L 7.554688 15.453125 L 8.0625 16.722656 L 8.257812 18.09375 L 8.335938 18.242188 C 8.777344 18.128906 9.191406 18.007812 9.554688 17.894531 C 10.074219 17.726562 10.601562 17.542969 11.125 17.339844 L 11.324219 17.058594 L 11.125 15.660156 L 12.160156 14.214844 L 11.160156 14.355469 L 10.050781 12.5 L 11.460938 13.613281 L 12.84375 12.617188 L 11.304688 11.921875 L 12.078125 11.8125 L 14.152344 12.230469 L 15.410156 12.839844 L 15.777344 13.503906 L 16.796875 13.113281 L 17.039062 15.078125 L 17.941406 14.75 L 19.53125 15.410156 L 19.5 13.644531 L 18.113281 14.238281 L 17.964844 13.191406 L 18.484375 12.816406 L 18.046875 12.050781 L 19.179688 11.601562 L 19.597656 10.515625 L 19.109375 9.355469 L 19.378906 8.976562 L 20.378906 8.832031 L 20.816406 8.222656 C 20.378906 7.296875 19.78125 6.445312 19.039062 5.703125 C 18.015625 4.679688 16.78125 3.929688 15.4375 3.496094 Z M 20.328125 15.667969 L 18.835938 17.050781 L 19.320312 18.183594 C 20.03125 17.410156 20.59375 16.523438 20.988281 15.574219 Z M 20.328125 15.667969 "/>
<path style=" stroke:none;fill-rule:nonzero;fill:rgb(23.137255%,27.45098%,32.156863%);fill-opacity:1;" d="M 12.84375 0.84375 C 19.003906 0.84375 24 5.839844 24 12 C 24 18.160156 19.003906 23.15625 12.84375 23.15625 C 11.105469 23.15625 9.460938 22.757812 7.992188 22.050781 C 8.699219 22 9.386719 21.914062 10.03125 21.804688 C 10.15625 21.78125 10.285156 21.757812 10.414062 21.734375 C 11.191406 21.929688 12.007812 22.03125 12.84375 22.03125 C 18.382812 22.03125 22.875 17.539062 22.875 12 C 22.875 6.460938 18.382812 1.96875 12.84375 1.96875 C 7.304688 1.96875 2.8125 6.460938 2.8125 12 C 2.8125 14.582031 3.789062 16.933594 5.386719 18.710938 C 4.867188 18.730469 4.355469 18.710938 3.871094 18.632812 C 2.5 16.777344 1.6875 14.484375 1.6875 12 C 1.6875 5.839844 6.683594 0.84375 12.84375 0.84375 Z M 13.464844 15.808594 L 14.015625 17.082031 C 9.257812 19.449219 1.222656 21.871094 0 16.035156 C 0.00390625 16.085938 0.0078125 16.136719 0.0117188 16.1875 C 0.59375 22.832031 9.921875 21.617188 14.992188 19.339844 L 15.53125 20.582031 L 18.3125 16.117188 Z M 13.464844 15.808594 "/>
</g>
</svg>
